PathFileType	4	(X/Y/Z)	 s04c0402.trc
DataRate	CameraRate	NumFrames	NumMarkers	Units	OrigDataRate	OrigDataStartFrame	OrigNumFrames
200	200	5	50	mm	200	1	2000
Frame#	Time	racr			lacr			c7			jug			rlel			rdr			llel			ldr			s2			lic			ric			lasi			rasi			rpsi			lpsi			rgt			lgt			rth1			rth2			rth3			rth4			rlfc			rmfc			rsh1			rsh2			rsh3			rsh4			rlmal			rmmal			rcal			rtoe			rmt5			lth1			lth2			lth4			lth3			llfc			lmfc			lsh1			lsh2			lsh3			lsh4			llmal			lmmal			lcal			ltoe			lmt5			SBIKE			LBIKE			RBIKE			
		X1	Y1	Z1	X2	Y2	Z2	X3	Y3	Z3	X4	Y4	Z4	X5	Y5	Z5	X6	Y6	Z6	X7	Y7	Z7	X8	Y8	Z8	X9	Y9	Z9	X10	Y10	Z10	X11	Y11	Z11	X12	Y12	Z12	X13	Y13	Z13	X14	Y14	Z14	X15	Y15	Z15	X16	Y16	Z16	X17	Y17	Z17	X18	Y18	Z18	X19	Y19	Z19	X20	Y20	Z20	X21	Y21	Z21	X22	Y22	Z22	X23	Y23	Z23	X24	Y24	Z24	X25	Y25	Z25	X26	Y26	Z26	X27	Y27	Z27	X28	Y28	Z28	X29	Y29	Z29	X30	Y30	Z30	X31	Y31	Z31	X32	Y32	Z32	X33	Y33	Z33	X34	Y34	Z34	X35	Y35	Z35	X36	Y36	Z36	X37	Y37	Z37	X38	Y38	Z38	X39	Y39	Z39	X40	Y40	Z40	X41	Y41	Z41	X42	Y42	Z42	X43	Y43	Z43	X44	Y44	Z44	X45	Y45	Z45	X46	Y46	Z46	X47	Y47	Z47	X48	Y48	Z48	X49	Y49	Z49	X50	Y50	Z50	
1	0.0050	478.375228	1481.514822	-105.202086	485.933543	1479.067935	-395.861790	449.232446	1531.004363	-257.708509	476.438964	1384.732030	-254.203282	498.596439	1163.864305	-14.944927	698.096242	942.335275	-65.816276	504.328202	1187.010502	-491.618263	698.482333	946.802900	-455.259070	-46.285699	1186.706383	-272.568235	119.679215	1193.589327	-422.021410	115.742068	1167.553600	-108.815141	149.817912	1145.326490	-379.965214	156.915637	1115.565758	-155.423267	-11.126636	1220.365136	-225.151846	-16.297710	1231.041867	-301.340649	58.857716	1109.308281	-96.753021	69.612704	1129.170551	-469.402672	141.171617	965.756945	-80.053019	200.290099	901.176759	-89.662136	223.529170	818.680397	-94.977397	229.310825	918.639149	-107.404608	274.884932	683.554533	-122.212020	250.261400	668.798591	-233.702469	202.465292	579.246479	-97.897171	176.299847	493.376725	-112.350484	109.554048	437.434784	-118.950271	202.745383	480.428257	-138.156952	37.546813	305.500623	-129.352023	59.202251	308.365739	-214.316799	-38.816907	291.942608	-170.484979	244.536600	193.996576	-152.086666	171.924401	190.196120	-99.351507	130.307795	1075.120029	-476.641497	215.655760	1063.827756	-481.744055	230.160129	1093.667215	-465.311479	285.847203	1009.615123	-493.735697	422.958586	920.846802	-473.516536	459.854700	904.403479	-365.985676	389.544712	809.005678	-491.159484	370.580217	727.127263	-464.742284	311.513793	661.107438	-457.505688	395.703351	720.253405	-435.392619	238.304576	536.081271	-439.150983	237.483906	544.390721	-351.208527	155.889507	515.849949	-393.289265	455.795332	494.144794	-403.022841	383.789764	458.131663	-463.196306	-177.457860	936.459741	-279.778412	-3.061534	85.884483	-485.072720	-15.077178	80.403220	-84.290344	
2	0.0100	478.373440	1481.500198	-105.160876	485.905749	1479.206870	-395.785474	449.061704	1531.432655	-257.930512	476.422660	1384.727542	-254.162934	498.466474	1163.795026	-15.176930	698.123898	942.333852	-65.904981	504.281772	1187.040773	-491.394633	698.557628	946.801951	-455.069451	-46.273098	1186.730979	-272.564030	119.681239	1193.608764	-422.023382	115.767013	1167.528218	-108.818304	149.829124	1145.322221	-379.931800	156.925909	1115.567523	-155.444109	-11.070581	1220.360391	-225.166570	-16.272756	1231.051268	-301.352247	58.871612	1109.288317	-96.760079	69.637440	1129.183947	-469.405252	141.184719	965.736689	-80.068272	200.281209	901.169660	-89.673510	223.518670	818.658735	-94.991516	229.327241	918.620346	-107.405525	274.866983	683.531284	-122.220978	250.229642	668.802345	-233.717547	202.459754	579.258519	-97.911814	176.249599	493.393136	-112.355241	109.517706	437.435506	-118.969674	202.697389	480.427380	-138.160244	37.471518	305.539851	-129.360856	59.122630	308.395764	-214.343360	-38.891012	291.973269	-170.484321	244.486133	194.053626	-152.088600	171.860981	190.235277	-99.357195	130.308546	1075.129220	-476.678920	215.653112	1063.769700	-481.765958	230.192983	1093.641492	-465.305454	285.863919	1009.560512	-493.739200	422.924833	920.774971	-473.508146	459.833386	904.337460	-365.961873	389.518420	808.912423	-491.168417	370.568210	727.049983	-464.744241	311.506886	661.033636	-457.500163	395.693997	720.157515	-435.376718	238.315291	535.990950	-439.150051	237.505568	544.282156	-351.198947	155.897117	515.730839	-393.286971	455.820324	494.140755	-403.011785	383.829811	458.101028	-463.184408	-177.465690	936.456745	-279.785728	-3.052808	85.902851	-485.054531	-15.067850	80.414428	-84.306472	
3	0.0150	478.352655	1481.535000	-105.172577	485.869631	1479.335248	-395.698932	449.041134	1531.443720	-258.009412	476.392053	1384.745934	-254.165648	498.344862	1163.729438	-15.387915	698.144439	942.335562	-66.010410	504.290952	1187.054047	-491.187166	698.677173	946.852838	-454.847041	-46.247910	1186.724524	-272.558310	119.690742	1193.618474	-422.019338	115.758908	1167.520243	-108.814772	149.851390	1145.323039	-379.948611	156.915191	1115.570474	-155.437354	-11.090733	1220.365657	-225.156719	-16.255755	1231.061670	-301.345396	58.869116	1109.285483	-96.748049	69.649112	1129.185139	-469.412231	141.180763	965.729258	-80.069344	200.320405	901.201845	-89.630061	223.481949	818.641537	-94.991332	229.307237	918.611546	-107.384114	274.852979	683.520703	-122.230339	250.214173	668.783246	-233.726713	202.418649	579.250576	-97.923588	176.208148	493.385166	-112.358717	109.462483	437.461801	-118.970332	202.657411	480.441509	-138.167245	37.384973	305.560290	-129.362964	59.062742	308.407031	-214.342183	-38.971493	291.987700	-170.495956	244.421055	194.096121	-152.088225	171.797713	190.271828	-99.363873	130.313405	1075.118073	-476.691231	215.665299	1063.740645	-481.774955	230.202638	1093.616461	-465.316164	285.853111	1009.517747	-493.735526	422.898370	920.692149	-473.493692	459.802723	904.267287	-365.955755	389.514263	808.831100	-491.157709	370.564839	726.954586	-464.730904	311.511511	660.945097	-457.492788	395.693576	720.075145	-435.371579	238.336890	535.900997	-439.152296	237.519896	544.192353	-351.205982	155.913113	515.606382	-393.283762	455.833988	494.133228	-403.012756	383.859309	458.067123	-463.178585	-177.469320	936.450704	-279.794009	-3.044633	85.891784	-485.054625	-15.065293	80.423302	-84.289127	
4	0.0200	478.320632	1481.570036	-105.176850	485.821380	1479.456202	-395.628831	449.049167	1531.449822	-258.042615	476.410557	1384.753556	-254.159759	498.236979	1163.652685	-15.605369	698.461708	942.435578	-65.718446	504.414481	1186.979266	-490.579914	698.776717	946.865893	-454.621662	-46.074941	1187.502404	-271.633327	119.718811	1193.635417	-422.035858	115.896531	1167.440111	-108.766848	149.872068	1145.318134	-379.895372	156.824358	1115.774943	-155.485203	-11.059226	1220.373682	-225.164185	-16.231953	1231.066134	-301.333849	58.815924	1109.188733	-96.744755	69.673846	1129.201348	-469.406790	141.166735	965.714678	-80.084291	200.869351	900.711808	-89.414046	223.457147	818.625425	-95.002496	229.288403	918.603722	-107.362081	274.828958	683.524066	-122.235364	250.182827	668.806836	-233.747979	202.387884	579.254619	-97.933963	175.479535	492.816700	-113.235664	109.418130	437.458336	-118.978106	202.657428	480.358732	-138.180331	37.313959	305.572587	-129.195823	58.989906	308.424013	-214.342672	-38.945731	292.065798	-170.543779	244.378979	194.149214	-152.094646	171.745117	190.322207	-99.358985	130.479706	1075.381771	-476.943265	215.666791	1063.718484	-481.779339	230.211382	1093.820163	-465.578982	285.852072	1009.470002	-493.718656	422.829986	920.668685	-473.425969	459.761150	904.184756	-365.907256	389.485673	808.755879	-491.150353	370.590651	726.884118	-464.826363	311.423743	660.779192	-457.512015	395.749421	720.036150	-435.643409	238.366556	535.682142	-438.923415	237.404081	544.129692	-350.888056	155.910757	515.451858	-393.282350	455.886088	494.160364	-403.059216	383.893999	458.033050	-463.184392	-177.531918	936.473483	-280.065839	-3.055259	85.885879	-485.062902	-15.070651	80.423657	-84.290397	
5	0.0250	478.282736	1481.596302	-105.192462	485.735166	1479.623549	-395.526523	449.060714	1531.339528	-257.991833	476.439505	1384.713350	-254.102040	498.199740	1163.613582	-15.790093	698.578823	942.474825	-65.659547	504.533471	1187.013982	-490.227597	698.799038	946.723307	-454.238000	-46.053103	1187.571969	-271.666097	119.720239	1193.644132	-422.046466	115.673390	1167.608716	-109.096385	149.873754	1145.387983	-379.965498	156.972419	1116.105224	-155.135652	-11.030616	1220.360615	-225.401070	-16.159399	1231.207684	-301.176538	58.933200	1109.318019	-96.700439	69.628111	1129.043859	-469.357123	141.144854	965.717541	-80.125371	200.936896	900.880296	-89.574961	223.453711	818.623282	-94.994931	229.278704	918.626717	-107.344320	274.861214	683.514828	-122.204134	250.118542	668.873352	-233.778761	202.319505	579.196004	-97.923072	175.425149	492.770923	-113.269897	109.366755	437.445699	-118.968683	202.321863	480.066225	-138.611698	37.280374	305.664986	-129.018793	58.994240	308.496237	-214.368908	-38.991770	292.123985	-170.543155	244.378807	194.141025	-152.159072	171.681199	190.324788	-99.597305	130.505614	1075.378561	-476.981633	215.571432	1063.537418	-481.653169	230.157572	1093.695554	-465.492043	285.762389	1009.350699	-493.557122	422.788902	920.564353	-473.363482	459.705602	904.091184	-365.846014	389.432805	808.586291	-490.804091	370.582107	726.820206	-464.839061	311.357684	660.690564	-457.456189	395.754746	719.964619	-435.674555	238.334593	535.541715	-438.784462	237.326395	543.997612	-350.957751	155.959663	515.294597	-393.272251	455.907133	494.152234	-403.063653	383.946639	458.037082	-463.175831	-177.519869	936.456342	-280.072953	-2.882461	86.150984	-484.834141	-15.042383	80.481253	-84.210108	
